<?xml version="1.0" encoding="UTF-8" standalone="no"?>
<!-- Created with Inkscape (http://www.inkscape.org/) -->

<svg
   version="1.1"
   id="svg1"
   width="440.04889"
   height="440.25208"
   viewBox="0 0 440.04889 440.25208"
   sodipodi:docname="logo_base.svg"
   inkscape:version="1.3.2 (091e20e, 2023-11-25, custom)"
   xmlns:inkscape="http://www.inkscape.org/namespaces/inkscape"
   xmlns:sodipodi="http://sodipodi.sourceforge.net/DTD/sodipodi-0.dtd"
   xmlns="http://www.w3.org/2000/svg"
   xmlns:svg="http://www.w3.org/2000/svg">
  <defs
     id="defs1" />
  <sodipodi:namedview
     id="namedview1"
     pagecolor="#ffffff"
     bordercolor="#000000"
     borderopacity="0.25"
     inkscape:showpageshadow="2"
     inkscape:pageopacity="0.0"
     inkscape:pagecheckerboard="0"
     inkscape:deskcolor="#d1d1d1"
     inkscape:zoom="0.64"
     inkscape:cx="887.5"
     inkscape:cy="482.03125"
     inkscape:window-width="1920"
     inkscape:window-height="1017"
     inkscape:window-x="1912"
     inkscape:window-y="-8"
     inkscape:window-maximized="1"
     inkscape:current-layer="g1"
     showgrid="false"
     inkscape:export-bgcolor="#ffffff00">
    <inkscape:grid
       id="grid3"
       units="px"
       originx="-558.19122"
       originy="-39.174271"
       spacingx="1"
       spacingy="1"
       empcolor="#0099e5"
       empopacity="0.30196078"
       color="#0099e5"
       opacity="0.14901961"
       empspacing="5"
       dotted="false"
       gridanglex="30"
       gridanglez="30"
       visible="false" />
  </sodipodi:namedview>
  <g
     inkscape:groupmode="layer"
     inkscape:label="Image"
     id="g1"
     style="display:inline"
     transform="translate(-558.19122,-39.174271)">
    <path
       style="fill:#ffffff;stroke-width:0.487793"
       d="m 768.70241,446.00569 c -14.24325,-0.44707 -29.83107,-2.47062 -29.83107,-3.87255 0,-0.89088 7.30065,-29.60037 7.67057,-30.16419 0.205,-0.31245 4.17184,-8.2e-4 10.0071,0.78615 12.13118,1.63607 36.35086,2.34977 45.29903,1.33486 14.54906,-1.65016 31.64769,-6.25816 44.19418,-11.91011 24.41366,-10.9979 45.96547,-29.40595 66.61557,-56.89837 2.63048,-3.50208 4.944,-6.36741 5.14116,-6.36741 0.39621,0 20.1591,11.35432 22.20887,12.75961 l 1.28712,0.88242 -4.19499,6.29913 c -10.70305,16.07153 -19.28631,26.59183 -30.32831,37.1727 -28.4311,27.2438 -62.16533,43.41558 -102.16146,48.97499 -6.89869,0.9589 -22.98934,1.40826 -35.90777,1.00277 z"
       id="path1" />
    <path
       style="fill:#ffffff;stroke-width:0.487793"
       d="m 708.76406,433.43264 c -18.28796,-7.43437 -32.35936,-15.63834 -47.6279,-27.76826 -8.10637,-6.44 -23.64283,-21.73169 -29.09115,-28.63283 -19.37935,-24.54693 -32.02295,-51.05727 -37.82044,-79.29961 -5.04739,-24.58831 -4.98872,-52.36747 0.16214,-76.76107 1.49783,-7.09346 2.32611,-10.21047 2.98396,-11.22926 0.60612,-0.93868 1.90526,-0.61631 16.80068,4.169 l 11.4733,3.68592 -0.42476,5.83037 c -0.23362,3.20671 -0.40733,16.27125 -0.38604,29.03232 0.0322,19.27787 0.20224,24.22967 1.00556,29.27864 3.55422,22.33876 10.26469,42.50075 19.05917,57.26441 5.72828,9.6163 11.80017,17.30678 20.43652,25.88432 13.7214,13.62796 28.62483,23.99344 51.39412,35.74509 5.03805,2.60023 9.45282,4.95712 9.81062,5.23754 0.76271,0.59777 0.50557,1.55566 -4.32546,16.11379 -3.51581,10.59478 -5.06416,14.16228 -6.14188,14.15136 -0.37363,-0.004 -3.66242,-1.21957 -7.30844,-2.70173 z"
       id="path2" />
    <path
       style="fill:#ffffff;stroke-width:0.487793"
       d="m 795.77134,371.0177 -8.56262,-0.33907 -0.14848,-12.56771 -0.14847,-12.56772 6.50139,-0.009 c 9.16694,-0.012 22.43173,-0.98724 26.61025,-1.9563 10.15138,-2.35426 16.163,-9.22393 19.79306,-22.61816 l 1.49716,-5.52427 0.18157,-55.38083 0.18156,-55.38082 h 12.97497 12.97497 l -0.17369,63.1148 c -0.17174,62.40629 -0.18673,63.15512 -1.33586,66.70558 -3.01927,9.32868 -6.03154,14.49832 -12.31571,21.13613 -7.46685,7.88703 -13.95997,11.91993 -22.8534,14.19434 -4.9502,1.26596 -20.23626,1.78419 -35.1767,1.19258 z"
       id="path4" />
    <path
       style="fill:#ffffff;stroke-width:0.487793"
       d="m 676.99986,302.8682 3.6e-4,-38.25558 h 38.80765 38.80765 l 4.05183,-1.48007 c 2.22851,-0.81404 5.42232,-2.3056 7.09736,-3.31457 4.28378,-2.58036 9.6545,-8.45525 11.86753,-12.98155 1.83078,-3.7445 1.8425,-3.8195 1.8425,-11.79029 v -8.0218 l -1.89679,-3.85294 c -2.22043,-4.51032 -8.18916,-10.74552 -12.53326,-13.09279 -6.73781,-3.64067 -15.21114,-4.26055 -58.55616,-4.28377 l -29.34447,-0.0157 -0.34241,-2.0716 c -0.18833,-1.13938 -0.34515,-6.94235 -0.3485,-12.89549 l -0.006,-10.82388 30.5216,-0.3055 c 33.02879,-0.33059 49.20397,0.0979 55.56735,1.47198 19.70462,4.25494 33.41404,14.88531 40.41547,31.33844 3.20758,7.5377 3.5728,9.72862 3.53128,21.18362 -0.0283,7.81308 -0.2736,11.46269 -0.95951,14.27736 -1.49348,6.12853 -5.24841,15.06169 -8.12172,19.32196 -3.06625,4.54634 -8.79505,10.5601 -13.06377,13.7136 -1.61124,1.19029 -2.92953,2.40636 -2.92953,2.70238 0,0.29601 5.30376,8.67816 11.78614,18.62699 15.02245,23.05572 14.87704,22.82172 14.44887,23.25093 -0.19869,0.19917 -7.11507,0.42908 -15.36974,0.51091 l -15.00848,0.14879 -12.42961,-17.66859 -12.42961,-17.6686 -23.61626,-0.0197 -23.61626,-0.0198 v 25.13543 25.13544 h -14.0869 -14.08689 z"
       id="path5" />
    <path
       style="fill:#ffffff;stroke-width:0.487793"
       d="m 676.9995,235.33398 v -10.21991 h 17.95388 17.95389 v 10.21991 10.2199 H 694.95338 676.9995 Z"
       id="path6" />
    <path
       style="fill:#ffffff;stroke-width:0.487793"
       d="m 615.98929,196.05943 c -6.97006,-2.26439 -12.74796,-4.1922 -12.83978,-4.28402 -0.43048,-0.43049 4.72752,-12.48574 8.3083,-19.41813 6.676,-12.9247 16.13726,-26.5554 26.92091,-38.78456 l 5.17161,-5.86484 6.27781,6.58052 c 3.45279,3.61929 7.6511,8.25857 9.32958,10.30951 l 3.05177,3.72899 -6.56878,8.70063 c -8.45043,11.19295 -12.5474,17.69271 -19.90698,31.58206 -3.28746,6.20425 -6.22345,11.34491 -6.52441,11.42368 -0.30096,0.0788 -6.24997,-1.70946 -13.22003,-3.97384 z"
       id="path7" />
    <path
       style="fill:#ffffff;stroke-width:0.487793"
       d="m 934.74626,248.73033 c -2.54697,-14.69393 -8.30731,-33.90705 -14.20012,-47.36328 -16.81547,-38.39811 -45.99093,-68.64322 -82.07587,-85.08497 -23.93264,-10.90467 -47.85298,-15.28069 -75.66876,-13.84295 -11.82801,0.61137 -17.33593,1.40177 -27.30458,3.91832 -19.50285,4.92339 -36.31868,12.61071 -52.68056,24.08278 l -6.61274,4.63649 -4.35887,-4.28545 c -2.39737,-2.357 -6.57417,-6.76021 -9.28177,-9.78493 l -4.92291,-5.49948 1.2552,-1.20843 c 1.31248,-1.26358 14.4552,-10.10235 22.52364,-15.147643 14.43783,-9.028155 34.55209,-17.467421 53.30922,-22.366753 16.62849,-4.343336 28.32841,-5.523055 50.65006,-5.107118 11.89284,0.221608 15.22001,0.479119 22.25019,1.722089 32.45851,5.738814 61.57264,18.867016 87.30363,39.367115 7.819,6.22946 25.20381,23.59872 31.44551,31.41737 8.37649,10.49281 16.4826,23.26575 22.42991,35.3432 11.54749,23.45 16.34817,41.72706 17.45161,66.44151 l 0.37615,8.42451 h -15.45373 -15.45372 z"
       id="path8" />
    <path
       style="fill:#ffffff;stroke-width:0.487793"
       d="m 937.33081,330.2436 c -6.74377,-3.87967 -11.18665,-6.76597 -11.18665,-7.26734 0,-0.45742 0.85453,-3.58409 1.89896,-6.94815 3.83124,-12.34022 6.21205,-23.59255 7.50412,-35.46637 0.36795,-3.38138 0.85862,-6.45478 1.09038,-6.82978 0.58392,-0.94481 27.38942,-2.11714 28.27017,-1.23639 0.44004,0.44004 0.34532,2.69874 -0.34551,8.23883 -2.56493,20.56944 -7.19591,39.04956 -12.74515,50.86001 -1.32053,2.81047 -2.60317,5.10431 -2.85032,5.09741 -0.24714,-0.007 -5.48335,-2.9086 -11.636,-6.44822 z"
       id="path9" />
  </g>
  <g
     inkscape:groupmode="layer"
     id="layer2"
     inkscape:label="Image vector"
     transform="translate(-558.19122,-39.174271)">
    <circle
       style="fill:#ffffff;fill-opacity:0.0916667;stroke:none;stroke-width:0.911397;stroke-dasharray:none;stroke-opacity:1"
       id="path2684"
       cx="744.05847"
       cy="358.47986"
       r="17.057665"
       inkscape:export-filename="path2684.svg"
       inkscape:export-xdpi="93.65625"
       inkscape:export-ydpi="93.65625" />
    <circle
       style="fill:#ffffff;fill-opacity:0.0916667;stroke:none;stroke-width:0.936075;stroke-dasharray:none;stroke-opacity:1"
       id="path2685"
       cx="854.0246"
       cy="167.39476"
       r="20.919672" />
    <g
       id="g2687"
       style="stroke:none"
       transform="translate(72.422326,-14.563831)">
      <path
         style="fill:#ffffff;fill-opacity:0.0916667;stroke:none;stroke-width:0.883;stroke-dasharray:none;stroke-opacity:1"
         d="m 604.35323,195.13047 0.44097,24.69447 h 69.89419 c 47.07353,1.48136 42.72606,59.2405 0.85851,60.34071 -23.30447,0.61244 -70.47016,-0.46772 -70.47016,-0.46772 v 74.99147 l 27.2838,0.31182 0.31181,-49.89038 47.55177,-0.15591 24.94519,35.23508 30.09013,-0.31181 -27.90743,-42.25092 c 36.91628,-17.20333 45.40165,-103.86766 -37.26187,-103.21071 z"
         id="path2686"
         sodipodi:nodetypes="cccscccccccccc" />
      <path
         style="fill:#ffffff;fill-opacity:0.0916667;stroke:none;stroke-width:0.883;stroke-dasharray:none;stroke-opacity:1"
         d="m 604.92083,240.25335 v 19.48843 H 640 l -0.15591,-19.64434 z"
         id="path2687" />
    </g>
    <path
       style="fill:#ffffff;fill-opacity:0.0916667;stroke:none;stroke-width:0.883;stroke-dasharray:none;stroke-opacity:0.9125"
       d="m 787.4138,345.73824 v 24.63338 l 30.09014,0.46772 c 27.40775,1.11949 47.68717,-20.86829 49.89038,-45.52497 l 0.1559,-119.89282 -25.41291,0.15591 0.31182,104.76979 c -2.64338,14.18686 -4.13981,33.84516 -29.93423,35.23508 z"
       id="path2689"
       sodipodi:nodetypes="ccccccccc" />
    <path
       style="fill:#ffffff;fill-opacity:0.0916667;stroke:none;stroke-width:0.883;stroke-dasharray:none;stroke-opacity:1"
       d="m 739.21921,442.46742 7.7888,-30.69757 c 63.03613,11.818 122.17103,-1.94258 170.78403,-72.54387 l 22.59904,13.20238 c -30.25346,52.21989 -95.20787,108.6718 -201.17187,90.03906 z"
       id="path2692"
       sodipodi:nodetypes="ccccc" />
    <path
       style="fill:#ffffff;fill-opacity:0.0916667;stroke:none;stroke-width:0.883;stroke-dasharray:none;stroke-opacity:1"
       d="m 948.98615,336.36553 -22.78762,-13.25825 c 6.31797,-16.24295 9.70194,-32.8771 10.49612,-49.85655 l 28.31189,-0.55243 c -2.53182,21.39525 -4.87592,42.00329 -16.02039,63.66723 z"
       id="path2693"
       sodipodi:nodetypes="ccccc" />
    <path
       style="fill:#ffffff;fill-opacity:0.0916667;stroke:none;stroke-width:0.883;stroke-dasharray:none;stroke-opacity:1"
       d="m 936.14222,253.63956 h 29.55485 C 969.42747,131.03191 807.19315,1.5381094 657.99514,115.53277 l 18.09199,19.12779 c 88.5551,-70.510361 237.47997,-28.99776 260.05509,118.979 z"
       id="path2694"
       sodipodi:nodetypes="ccccc" />
    <path
       style="fill:#ffffff;fill-opacity:0.0916667;stroke:none;stroke-width:0.883;stroke-dasharray:none;stroke-opacity:1"
       d="m 603.71917,191.49151 26.10218,8.2864 c 9.41061,-22.48005 20.57772,-37.93409 32.17888,-51.65194 l -18.23009,-19.61116 c -17.707,18.20396 -31.54571,38.88363 -40.05097,62.9767 z"
       id="path2695"
       sodipodi:nodetypes="ccccc" />
    <path
       style="fill:#ffffff;fill-opacity:0.0916667;stroke:none;stroke-width:0.883;stroke-dasharray:none;stroke-opacity:1"
       d="m 716.96674,436.07864 9.94369,-29.83107 C 664.87979,377.00065 613.03977,336.76893 625.12572,218.14612 l -27.48325,-9.11505 c -28.40495,106.71208 35.44978,198.1708 119.32427,227.04757 z"
       id="path2696"
       sodipodi:nodetypes="ccccc" />
    <path
       style="fill:#08202c;fill-opacity:1;stroke:none;stroke-width:0.689844;stroke-dasharray:none;stroke-opacity:1"
       d="M 762.30475,478.68648 C 691.86254,473.64586 627.13539,434.10891 590.35327,373.65423 559.1886,322.43233 550.3104,262.191 565.30427,203.68891 c 7.41916,-28.94758 22.48603,-58.81094 41.70805,-82.66764 7.70432,-9.56193 23.46443,-25.322051 33.02636,-33.026361 61.58819,-49.62335 145.166,-62.50148 218.32115,-33.64012 72.78287,28.71449 124.72941,93.081721 137.07546,169.850951 9.51891,59.18992 -5.40901,119.3517 -41.46005,167.08981 -39.06214,51.72535 -96.71069,82.94097 -161.49787,87.44808 -13.26233,0.92264 -16.56774,0.91638 -30.17262,-0.0571 z M 801.724,445.61877 c 49.1277,-5.76563 90.15005,-28.39485 121.89041,-67.23857 4.77781,-5.84706 17.96574,-24.99022 17.9321,-26.02964 -0.009,-0.27947 -3.40409,-2.44173 -7.54455,-4.80501 -4.14045,-2.36328 -9.53694,-5.44605 -11.99218,-6.8506 l -4.46407,-2.55372 -5.36519,7.24122 c -31.15494,42.04883 -67.07889,64.02934 -112.18075,68.63916 -10.93684,1.11784 -30.2052,0.41422 -43.59306,-1.59189 -5.3711,-0.80484 -9.88794,-1.34313 -10.03743,-1.19622 -0.34424,0.3383 -7.88471,30.16116 -7.91147,31.29017 -0.0197,0.83131 8.88911,2.30381 20.80104,3.43813 10.74177,1.0229 32.31098,0.84866 42.46515,-0.34303 z m -79.09096,-23.68115 c 2.67708,-8.06872 4.86742,-15.08307 4.86742,-15.58742 0,-0.50434 -2.90039,-2.27871 -6.44532,-3.94304 -15.54031,-7.29609 -34.05698,-18.87139 -45.67478,-28.55262 -28.43525,-23.69538 -43.32044,-51.99881 -49.58203,-94.27774 -1.11021,-7.49623 -1.37939,-42.02501 -0.42337,-54.30599 l 0.60889,-7.82161 -13.73218,-4.55233 c -7.55269,-2.50378 -14.19031,-4.37652 -14.75026,-4.16164 -1.09793,0.42131 -3.87717,12.52425 -5.67632,24.71901 -0.60457,4.09788 -1.30495,13.77881 -1.55639,21.51318 -1.47879,45.48788 13.53486,88.60599 43.36981,124.5549 15.81157,19.05179 37.91101,36.55417 60.2682,47.73141 7.77322,3.88614 20.96447,9.32086 22.67165,9.34059 0.85053,0.01 2.56776,-4.1471 6.05468,-14.6567 z m 27.03701,-46.44764 c 4.32817,-1.29675 10.23523,-7.10265 11.34179,-11.14756 2.04085,-7.46008 0.562,-13.46898 -4.53103,-18.41056 -8.2099,-7.96579 -20.87084,-6.78888 -27.10982,2.52001 -9.52937,14.21833 3.80519,31.97979 20.29906,27.03811 z m 79.78353,-4.901 c 9.0516,-1.9004 16.27485,-5.96364 23.47413,-13.2047 7.23479,-7.27678 11.2636,-14.23756 13.65712,-23.59614 1.46937,-5.74518 1.54063,-8.87258 1.54063,-67.61756 V 204.5768 h -13.28125 -13.28125 l -0.0103,53.32031 c -0.009,49.03211 -0.12785,53.89008 -1.47243,60.40487 -2.61992,12.69413 -7.27137,19.72657 -15.60449,23.59214 -4.63383,2.14954 -13.98336,3.19582 -29.20187,3.2679 l -8.39844,0.0398 v 12.85903 12.85903 l 6.44531,0.26319 c 17.69093,0.72243 30.89649,0.50532 36.13281,-0.59407 z M 705.62546,316.29555 v -25 h 23.27236 23.27236 l 12.43099,17.57812 12.431,17.57813 h 15.94273 c 12.8636,0 15.8665,-0.19867 15.548,-1.02864 -0.21709,-0.56574 -6.27579,-9.97004 -13.46379,-20.89843 -7.18798,-10.92839 -13.20606,-20.22622 -13.3735,-20.66183 -0.16745,-0.43562 0.95136,-1.46833 2.48625,-2.29492 3.75739,-2.02348 12.04725,-10.92759 15.0341,-16.14806 1.3327,-2.32931 3.55123,-7.56762 4.93008,-11.64068 2.17611,-6.42816 2.5534,-8.74601 2.8587,-17.56182 0.41968,-12.11884 -0.70345,-17.97869 -5.24086,-27.34375 -7.08442,-14.62204 -20.78669,-24.30327 -39.87842,-28.1758 -7.28927,-1.47854 -14.62119,-1.64163 -59.17969,-1.31639 l -26.75781,0.19532 0.009,10.35156 c 0.005,5.69336 0.22651,11.66992 0.49284,13.28125 l 0.48424,2.92969 36.81185,0.0136 c 39.22362,0.0145 43.53551,0.34797 50.51186,3.90704 4.9844,2.54286 10.62576,8.23666 13.04829,13.1696 1.89774,3.86432 2.15754,5.28911 2.15467,11.81605 -0.003,6.501 -0.26845,7.96226 -2.14045,11.77723 -4.22832,8.61695 -13.04042,15.2022 -22.88746,17.10372 -3.22121,0.62203 -15.91322,0.82469 -41.18009,0.65754 l -36.52377,-0.24162 3.3e-4,38.47656 3.4e-4,38.47657 h 14.45272 14.45313 z m 246.12471,16.34491 c 5.43851,-10.77363 10.17881,-29.07836 12.82286,-49.51559 0.66477,-5.1384 1.20868,-9.83941 1.20868,-10.44668 0,-0.93231 -2.27949,-1.01557 -14.64844,-0.53508 -8.05664,0.31297 -14.75337,0.66578 -14.88162,0.78403 -0.12826,0.11824 -0.56626,3.50849 -0.97335,7.53388 -1.13437,11.21693 -3.58658,23.03806 -6.97204,33.60932 -1.68986,5.27667 -3.00193,9.63406 -2.9157,9.68307 0.0862,0.049 5.42474,3.13715 11.86337,6.8625 6.43863,3.72536 11.7949,6.77339 11.90282,6.77339 0.10792,0 1.27496,-2.13698 2.59342,-4.74884 z m 14.80638,-84.50898 c -0.0566,-56.96754 -37.79933,-117.81993 -93.74359,-151.142491 -23.05116,-13.73017 -48.29953,-22.24761 -74.92067,-25.27422 -10.51883,-1.1959 -37.01163,-0.53496 -46.95433,1.17142 -22.64773,3.88683 -45.22222,11.9382 -65.16303,23.2409 -7.39235,4.190081 -27.54406,17.550531 -28.28854,18.755121 -0.48321,0.78186 2.47303,4.25298 11.96252,14.04602 l 6.56336,6.77331 6.40816,-4.59717 c 18.8543,-13.52597 40.23479,-22.47879 64.36715,-26.95295 10.49979,-1.94668 33.63856,-2.36521 45.35744,-0.82043 62.35006,8.21897 112.21105,50.17778 133.77518,112.57393 3.45893,10.00848 7.03539,23.75945 8.58493,33.00781 l 0.949,5.66407 h 15.55441 15.55442 z M 713.43796,235.43617 V 224.8893 h -18.35938 -18.35937 v 10.54687 10.54688 h 18.35937 18.35938 z m -77.97878,-45.51605 c 5.74808,-11.81 13.16703,-23.58229 21.28882,-33.78082 2.90861,-3.65235 5.46625,-7.08184 5.68364,-7.62111 0.21738,-0.53926 -3.91959,-5.568 -9.19328,-11.17498 l -9.58851,-10.1945 -4.75439,5.24841 c -15.24919,16.83372 -28.47969,37.84139 -34.73803,55.15774 l -1.61278,4.46243 13.06384,4.24847 c 7.18511,2.33666 13.4154,4.27994 13.84509,4.3184 0.42969,0.0385 3.13221,-4.76036 6.0056,-10.66404 z m 227.61792,-2.81644 c 5.28387,-2.46049 10.19883,-8.14472 11.79751,-13.64395 2.91125,-10.01436 -1.907,-21.07723 -11.1215,-25.53531 -3.68871,-1.78465 -12.05911,-2.41555 -16.43059,-1.23843 -4.62484,1.24534 -9.74416,5.50402 -12.41625,10.32888 -2.00882,3.62722 -2.32525,5.0047 -2.31141,10.06193 0.0186,6.79228 1.75115,11.32722 5.9401,15.54811 6.26242,6.31019 16.56975,8.19121 24.54214,4.47877 z"
       id="path2697"
       sodipodi:nodetypes="sssssssssssssssscssssssssssssscsssssscssssssssssccccssscccsssccccccssssssssssscsscsssssssccccccssccsssssssssssssscssssscccscccccccccsssscsscsssssssssss" />
    <path
       style="fill:#0482d7;fill-opacity:1;stroke:none;stroke-width:0.542064;stroke-dasharray:none;stroke-opacity:1"
       d="m 739.02463,375.90876 c -2.7327,-0.83125 -5.16202,-2.32277 -7.52134,-4.6178 -3.40007,-3.30746 -4.89978,-6.67699 -5.23141,-11.75378 -0.24839,-3.80243 -0.0677,-4.84425 1.4119,-8.14127 3.10467,-6.9181 9.03036,-10.76281 16.56287,-10.74635 13.17256,0.0288 21.84276,13.79332 16.08013,25.5283 -2.0609,4.19684 -6.17372,8.00496 -10.08464,9.33755 -2.95166,1.00572 -8.55808,1.20232 -11.21751,0.39335 z"
       id="path2698" />
    <circle
       style="fill:#ffffff;fill-opacity:0.0916667;stroke:none;stroke-width:0.911397;stroke-dasharray:none;stroke-opacity:1"
       id="circle2698"
       cx="744.05847"
       cy="358.47986"
       r="17.057665" />
    <circle
       style="fill:#ffffff;fill-opacity:0.0916667;stroke:none;stroke-width:0.936075;stroke-dasharray:none;stroke-opacity:1"
       id="circle2699"
       cx="854.0246"
       cy="167.39476"
       r="20.919672" />
    <g
       id="g2700"
       style="stroke:none"
       transform="translate(72.422326,-14.563831)">
      <path
         style="fill:#ffffff;fill-opacity:0.0916667;stroke:none;stroke-width:0.883;stroke-dasharray:none;stroke-opacity:1"
         d="m 604.35323,195.13047 0.44097,24.69447 h 69.89419 c 47.07353,1.48136 42.72606,59.2405 0.85851,60.34071 -23.30447,0.61244 -70.47016,-0.46772 -70.47016,-0.46772 v 74.99147 l 27.2838,0.31182 0.31181,-49.89038 47.55177,-0.15591 24.94519,35.23508 30.09013,-0.31181 -27.90743,-42.25092 c 36.91628,-17.20333 45.40165,-103.86766 -37.26187,-103.21071 z"
         id="path2699"
         sodipodi:nodetypes="cccscccccccccc" />
      <path
         style="fill:#ffffff;fill-opacity:0.0916667;stroke:none;stroke-width:0.883;stroke-dasharray:none;stroke-opacity:1"
         d="m 604.92083,240.25335 v 19.48843 H 640 l -0.15591,-19.64434 z"
         id="path2700" />
    </g>
    <path
       style="fill:#ffffff;fill-opacity:0.0916667;stroke:none;stroke-width:0.883;stroke-dasharray:none;stroke-opacity:0.9125"
       d="m 787.4138,345.73824 v 24.63338 l 30.09014,0.46772 c 27.40775,1.11949 47.68717,-20.86829 49.89038,-45.52497 l 0.1559,-119.89282 -25.41291,0.15591 0.31182,104.76979 c -2.64338,14.18686 -4.13981,33.84516 -29.93423,35.23508 z"
       id="path2701"
       sodipodi:nodetypes="ccccccccc" />
    <path
       style="fill:#ffffff;fill-opacity:0.0916667;stroke:none;stroke-width:0.883;stroke-dasharray:none;stroke-opacity:1"
       d="m 739.21921,442.46742 7.7888,-30.69757 c 63.03613,11.818 122.17103,-1.94258 170.78403,-72.54387 l 22.59904,13.20238 c -30.25346,52.21989 -95.20787,108.6718 -201.17187,90.03906 z"
       id="path2702"
       sodipodi:nodetypes="ccccc" />
    <path
       style="fill:#ffffff;fill-opacity:0.0916667;stroke:none;stroke-width:0.883;stroke-dasharray:none;stroke-opacity:1"
       d="m 948.98615,336.36553 -22.78762,-13.25825 c 6.31797,-16.24295 9.70194,-32.8771 10.49612,-49.85655 l 28.31189,-0.55243 c -2.53182,21.39525 -4.87592,42.00329 -16.02039,63.66723 z"
       id="path2703"
       sodipodi:nodetypes="ccccc" />
    <path
       style="fill:#ffffff;fill-opacity:0.0916667;stroke:none;stroke-width:0.883;stroke-dasharray:none;stroke-opacity:1"
       d="m 936.14222,253.63956 h 29.55485 C 969.42747,131.03191 807.19315,1.5381094 657.99514,115.53277 l 18.09199,19.12779 c 88.5551,-70.510361 237.47997,-28.99776 260.05509,118.979 z"
       id="path2704"
       sodipodi:nodetypes="ccccc" />
    <path
       style="fill:#ffffff;fill-opacity:0.0916667;stroke:none;stroke-width:0.883;stroke-dasharray:none;stroke-opacity:1"
       d="m 603.71917,191.49151 26.10218,8.2864 c 9.41061,-22.48005 20.57772,-37.93409 32.17888,-51.65194 l -18.23009,-19.61116 c -17.707,18.20396 -31.54571,38.88363 -40.05097,62.9767 z"
       id="path2705"
       sodipodi:nodetypes="ccccc" />
    <path
       style="fill:#ffffff;fill-opacity:0.0916667;stroke:none;stroke-width:0.883;stroke-dasharray:none;stroke-opacity:1"
       d="m 716.96674,436.07864 9.94369,-29.83107 C 664.87979,377.00065 613.03977,336.76893 625.12572,218.14612 l -27.48325,-9.11505 c -28.40495,106.71208 35.44978,198.1708 119.32427,227.04757 z"
       id="path2706"
       sodipodi:nodetypes="ccccc" />
    <path
       style="fill:#08202c;fill-opacity:1;stroke:none;stroke-width:0.689844;stroke-dasharray:none;stroke-opacity:1"
       d="M 762.30475,478.68648 C 691.86254,473.64586 627.13539,434.10891 590.35327,373.65423 559.1886,322.43233 550.3104,262.191 565.30427,203.68891 c 7.41916,-28.94758 22.48603,-58.81094 41.70805,-82.66764 7.70432,-9.56193 23.46443,-25.322051 33.02636,-33.026361 61.58819,-49.62335 145.166,-62.50148 218.32115,-33.64012 72.78287,28.71449 124.72941,93.081721 137.07546,169.850951 9.51891,59.18992 -5.40901,119.3517 -41.46005,167.08981 -39.06214,51.72535 -96.71069,82.94097 -161.49787,87.44808 -13.26233,0.92264 -16.56774,0.91638 -30.17262,-0.0571 z M 801.724,445.61877 c 49.1277,-5.76563 90.15005,-28.39485 121.89041,-67.23857 4.77781,-5.84706 17.96574,-24.99022 17.9321,-26.02964 -0.009,-0.27947 -3.40409,-2.44173 -7.54455,-4.80501 -4.14045,-2.36328 -9.53694,-5.44605 -11.99218,-6.8506 l -4.46407,-2.55372 -5.36519,7.24122 c -31.15494,42.04883 -67.07889,64.02934 -112.18075,68.63916 -10.93684,1.11784 -30.2052,0.41422 -43.59306,-1.59189 -5.3711,-0.80484 -9.88794,-1.34313 -10.03743,-1.19622 -0.34424,0.3383 -7.88471,30.16116 -7.91147,31.29017 -0.0197,0.83131 8.88911,2.30381 20.80104,3.43813 10.74177,1.0229 32.31098,0.84866 42.46515,-0.34303 z m -79.09096,-23.68115 c 2.67708,-8.06872 4.86742,-15.08307 4.86742,-15.58742 0,-0.50434 -2.90039,-2.27871 -6.44532,-3.94304 -15.54031,-7.29609 -34.05698,-18.87139 -45.67478,-28.55262 -28.43525,-23.69538 -43.32044,-51.99881 -49.58203,-94.27774 -1.11021,-7.49623 -1.37939,-42.02501 -0.42337,-54.30599 l 0.60889,-7.82161 -13.73218,-4.55233 c -7.55269,-2.50378 -14.19031,-4.37652 -14.75026,-4.16164 -1.09793,0.42131 -3.87717,12.52425 -5.67632,24.71901 -0.60457,4.09788 -1.30495,13.77881 -1.55639,21.51318 -1.47879,45.48788 13.53486,88.60599 43.36981,124.5549 15.81157,19.05179 37.91101,36.55417 60.2682,47.73141 7.77322,3.88614 20.96447,9.32086 22.67165,9.34059 0.85053,0.01 2.56776,-4.1471 6.05468,-14.6567 z m 27.03701,-46.44764 c 4.32817,-1.29675 10.23523,-7.10265 11.34179,-11.14756 2.04085,-7.46008 0.562,-13.46898 -4.53103,-18.41056 -8.2099,-7.96579 -20.87084,-6.78888 -27.10982,2.52001 -9.52937,14.21833 3.80519,31.97979 20.29906,27.03811 z m 79.78353,-4.901 c 9.0516,-1.9004 16.27485,-5.96364 23.47413,-13.2047 7.23479,-7.27678 11.2636,-14.23756 13.65712,-23.59614 1.46937,-5.74518 1.54063,-8.87258 1.54063,-67.61756 V 204.5768 h -13.28125 -13.28125 l -0.0103,53.32031 c -0.009,49.03211 -0.12785,53.89008 -1.47243,60.40487 -2.61992,12.69413 -7.27137,19.72657 -15.60449,23.59214 -4.63383,2.14954 -13.98336,3.19582 -29.20187,3.2679 l -8.39844,0.0398 v 12.85903 12.85903 l 6.44531,0.26319 c 17.69093,0.72243 30.89649,0.50532 36.13281,-0.59407 z M 705.62546,316.29555 v -25 h 23.27236 23.27236 l 12.43099,17.57812 12.431,17.57813 h 15.94273 c 12.8636,0 15.8665,-0.19867 15.548,-1.02864 -0.21709,-0.56574 -6.27579,-9.97004 -13.46379,-20.89843 -7.18798,-10.92839 -13.20606,-20.22622 -13.3735,-20.66183 -0.16745,-0.43562 0.95136,-1.46833 2.48625,-2.29492 3.75739,-2.02348 12.04725,-10.92759 15.0341,-16.14806 1.3327,-2.32931 3.55123,-7.56762 4.93008,-11.64068 2.17611,-6.42816 2.5534,-8.74601 2.8587,-17.56182 0.41968,-12.11884 -0.70345,-17.97869 -5.24086,-27.34375 -7.08442,-14.62204 -20.78669,-24.30327 -39.87842,-28.1758 -7.28927,-1.47854 -14.62119,-1.64163 -59.17969,-1.31639 l -26.75781,0.19532 0.009,10.35156 c 0.005,5.69336 0.22651,11.66992 0.49284,13.28125 l 0.48424,2.92969 36.81185,0.0136 c 39.22362,0.0145 43.53551,0.34797 50.51186,3.90704 4.9844,2.54286 10.62576,8.23666 13.04829,13.1696 1.89774,3.86432 2.15754,5.28911 2.15467,11.81605 -0.003,6.501 -0.26845,7.96226 -2.14045,11.77723 -4.22832,8.61695 -13.04042,15.2022 -22.88746,17.10372 -3.22121,0.62203 -15.91322,0.82469 -41.18009,0.65754 l -36.52377,-0.24162 3.3e-4,38.47656 3.4e-4,38.47657 h 14.45272 14.45313 z m 246.12471,16.34491 c 5.43851,-10.77363 10.17881,-29.07836 12.82286,-49.51559 0.66477,-5.1384 1.20868,-9.83941 1.20868,-10.44668 0,-0.93231 -2.27949,-1.01557 -14.64844,-0.53508 -8.05664,0.31297 -14.75337,0.66578 -14.88162,0.78403 -0.12826,0.11824 -0.56626,3.50849 -0.97335,7.53388 -1.13437,11.21693 -3.58658,23.03806 -6.97204,33.60932 -1.68986,5.27667 -3.00193,9.63406 -2.9157,9.68307 0.0862,0.049 5.42474,3.13715 11.86337,6.8625 6.43863,3.72536 11.7949,6.77339 11.90282,6.77339 0.10792,0 1.27496,-2.13698 2.59342,-4.74884 z m 14.80638,-84.50898 c -0.0566,-56.96754 -37.79933,-117.81993 -93.74359,-151.142491 -23.05116,-13.73017 -48.29953,-22.24761 -74.92067,-25.27422 -10.51883,-1.1959 -37.01163,-0.53496 -46.95433,1.17142 -22.64773,3.88683 -45.22222,11.9382 -65.16303,23.2409 -7.39235,4.190081 -27.54406,17.550531 -28.28854,18.755121 -0.48321,0.78186 2.47303,4.25298 11.96252,14.04602 l 6.56336,6.77331 6.40816,-4.59717 c 18.8543,-13.52597 40.23479,-22.47879 64.36715,-26.95295 10.49979,-1.94668 33.63856,-2.36521 45.35744,-0.82043 62.35006,8.21897 112.21105,50.17778 133.77518,112.57393 3.45893,10.00848 7.03539,23.75945 8.58493,33.00781 l 0.949,5.66407 h 15.55441 15.55442 z M 713.43796,235.43617 V 224.8893 h -18.35938 -18.35937 v 10.54687 10.54688 h 18.35937 18.35938 z m -77.97878,-45.51605 c 5.74808,-11.81 13.16703,-23.58229 21.28882,-33.78082 2.90861,-3.65235 5.46625,-7.08184 5.68364,-7.62111 0.21738,-0.53926 -3.91959,-5.568 -9.19328,-11.17498 l -9.58851,-10.1945 -4.75439,5.24841 c -15.24919,16.83372 -28.47969,37.84139 -34.73803,55.15774 l -1.61278,4.46243 13.06384,4.24847 c 7.18511,2.33666 13.4154,4.27994 13.84509,4.3184 0.42969,0.0385 3.13221,-4.76036 6.0056,-10.66404 z m 227.61792,-2.81644 c 5.28387,-2.46049 10.19883,-8.14472 11.79751,-13.64395 2.91125,-10.01436 -1.907,-21.07723 -11.1215,-25.53531 -3.68871,-1.78465 -12.05911,-2.41555 -16.43059,-1.23843 -4.62484,1.24534 -9.74416,5.50402 -12.41625,10.32888 -2.00882,3.62722 -2.32525,5.0047 -2.31141,10.06193 0.0186,6.79228 1.75115,11.32722 5.9401,15.54811 6.26242,6.31019 16.56975,8.19121 24.54214,4.47877 z"
       id="path2707"
       sodipodi:nodetypes="sssssssssssssssscssssssssssssscsssssscssssssssssccccssscccsssccccccssssssssssscsscsssssssccccccssccsssssssssssssscssssscccscccccccccsssscsscsssssssssss" />
    <path
       style="fill:#0482d7;fill-opacity:1;stroke:none;stroke-width:0.542064;stroke-dasharray:none;stroke-opacity:1"
       d="m 739.02463,375.90876 c -2.7327,-0.83125 -5.16202,-2.32277 -7.52134,-4.6178 -3.40007,-3.30746 -4.89978,-6.67699 -5.23141,-11.75378 -0.24839,-3.80243 -0.0677,-4.84425 1.4119,-8.14127 3.10467,-6.9181 9.03036,-10.76281 16.56287,-10.74635 13.17256,0.0288 21.84276,13.79332 16.08013,25.5283 -2.0609,4.19684 -6.17372,8.00496 -10.08464,9.33755 -2.95166,1.00572 -8.55808,1.20232 -11.21751,0.39335 z"
       id="path2708" />
  </g>
</svg>
