<?xml version="1.0" encoding="UTF-8" standalone="no"?>
<!-- Created with Inkscape (http://www.inkscape.org/) -->

<svg
   version="1.1"
   id="svg1"
   width="440.04892"
   height="440.25208"
   viewBox="0 0 440.04892 440.25208"
   sodipodi:docname="logo v2.svg"
   inkscape:version="1.3.2 (091e20e, 2023-11-25, custom)"
   xmlns:inkscape="http://www.inkscape.org/namespaces/inkscape"
   xmlns:sodipodi="http://sodipodi.sourceforge.net/DTD/sodipodi-0.dtd"
   xmlns="http://www.w3.org/2000/svg"
   xmlns:svg="http://www.w3.org/2000/svg">
  <defs
     id="defs1" />
  <sodipodi:namedview
     id="namedview1"
     pagecolor="#ffffff"
     bordercolor="#000000"
     borderopacity="0.25"
     inkscape:showpageshadow="2"
     inkscape:pageopacity="0.0"
     inkscape:pagecheckerboard="0"
     inkscape:deskcolor="#d1d1d1"
     inkscape:zoom="1.28"
     inkscape:cx="535.15625"
     inkscape:cy="511.32813"
     inkscape:window-width="1920"
     inkscape:window-height="1017"
     inkscape:window-x="1912"
     inkscape:window-y="-8"
     inkscape:window-maximized="1"
     inkscape:current-layer="layer2"
     showgrid="false">
    <inkscape:grid
       id="grid3"
       units="px"
       originx="-348.26889"
       originy="-275.6131"
       spacingx="1"
       spacingy="1"
       empcolor="#0099e5"
       empopacity="0.30196078"
       color="#0099e5"
       opacity="0.14901961"
       empspacing="5"
       dotted="false"
       gridanglex="30"
       gridanglez="30"
       visible="false" />
  </sodipodi:namedview>
  <g
     inkscape:groupmode="layer"
     id="layer2"
     inkscape:label="Image vector"
     transform="translate(-348.26889,-275.6131)">
    <circle
       style="fill:#ffffff;fill-opacity:0.0916667;stroke:none;stroke-width:0.911397;stroke-dasharray:none;stroke-opacity:1"
       id="path2684"
       cx="534.13617"
       cy="594.9187"
       r="17.057665" />
    <circle
       style="fill:#ffffff;fill-opacity:0.0916667;stroke:none;stroke-width:0.936075;stroke-dasharray:none;stroke-opacity:1"
       id="path2685"
       cx="644.10229"
       cy="403.83359"
       r="20.919672" />
    <g
       id="g2687"
       style="stroke:none"
       transform="translate(-137.5,221.875)">
      <path
         style="fill:#ffffff;fill-opacity:0.0916667;stroke:none;stroke-width:0.883;stroke-dasharray:none;stroke-opacity:1"
         d="m 604.35323,195.13047 0.44097,24.69447 h 69.89419 c 47.07353,1.48136 42.72606,59.2405 0.85851,60.34071 -23.30447,0.61244 -70.47016,-0.46772 -70.47016,-0.46772 v 74.99147 l 27.2838,0.31182 0.31181,-49.89038 47.55177,-0.15591 24.94519,35.23508 30.09013,-0.31181 -27.90743,-42.25092 c 36.91628,-17.20333 45.40165,-103.86766 -37.26187,-103.21071 z"
         id="path2686"
         sodipodi:nodetypes="cccscccccccccc" />
      <path
         style="fill:#ffffff;fill-opacity:0.0916667;stroke:none;stroke-width:0.883;stroke-dasharray:none;stroke-opacity:1"
         d="m 604.92083,240.25335 v 19.48843 H 640 l -0.15591,-19.64434 z"
         id="path2687" />
    </g>
    <path
       style="fill:#ffffff;fill-opacity:0.0916667;stroke:none;stroke-width:0.883;stroke-dasharray:none;stroke-opacity:0.9125"
       d="m 577.49147,582.17707 v 24.63338 l 30.09014,0.46772 c 27.40775,1.11949 47.68717,-20.86829 49.89038,-45.52497 l 0.1559,-119.89282 -25.41291,0.15591 0.31182,104.76979 c -2.64338,14.18686 -4.13981,33.84516 -29.93423,35.23508 z"
       id="path2689"
       sodipodi:nodetypes="ccccccccc" />
    <path
       style="fill:#ffffff;fill-opacity:0.0916667;stroke:none;stroke-width:0.883;stroke-dasharray:none;stroke-opacity:1"
       d="m 529.29688,678.90625 7.7888,-30.69757 c 63.03613,11.818 122.17103,-1.94258 170.78403,-72.54387 l 22.59904,13.20238 c -30.25346,52.21989 -95.20787,108.6718 -201.17187,90.03906 z"
       id="path2692"
       sodipodi:nodetypes="ccccc" />
    <path
       style="fill:#ffffff;fill-opacity:0.0916667;stroke:none;stroke-width:0.883;stroke-dasharray:none;stroke-opacity:1"
       d="M 739.06382,572.80436 716.2762,559.54611 c 6.31797,-16.24295 9.70194,-32.8771 10.49612,-49.85655 l 28.31189,-0.55243 c -2.53182,21.39525 -4.87592,42.00329 -16.02039,63.66723 z"
       id="path2693"
       sodipodi:nodetypes="ccccc" />
    <path
       style="fill:#ffffff;fill-opacity:0.0916667;stroke:none;stroke-width:0.883;stroke-dasharray:none;stroke-opacity:1"
       d="m 726.21989,490.07839 h 29.55485 C 759.50514,367.47074 597.27082,237.97694 448.07281,351.9716 l 18.09199,19.12779 c 88.5551,-70.51036 237.47997,-28.99776 260.05509,118.979 z"
       id="path2694"
       sodipodi:nodetypes="ccccc" />
    <path
       style="fill:#ffffff;fill-opacity:0.0916667;stroke:none;stroke-width:0.883;stroke-dasharray:none;stroke-opacity:1"
       d="m 393.79684,427.93034 26.10218,8.2864 c 9.41061,-22.48005 20.57772,-37.93409 32.17888,-51.65194 l -18.23009,-19.61116 c -17.707,18.20396 -31.54571,38.88363 -40.05097,62.9767 z"
       id="path2695"
       sodipodi:nodetypes="ccccc" />
    <path
       style="fill:#ffffff;fill-opacity:0.0916667;stroke:none;stroke-width:0.883;stroke-dasharray:none;stroke-opacity:1"
       d="M 507.04441,672.51747 516.9881,642.6864 C 454.95746,613.43948 403.11744,573.20776 415.20339,454.58495 l -27.48325,-9.11505 c -28.40495,106.71208 35.44978,198.1708 119.32427,227.04757 z"
       id="path2696"
       sodipodi:nodetypes="ccccc" />
    <path
       style="fill:#08202c;fill-opacity:1;stroke:none;stroke-width:0.689844;stroke-dasharray:none;stroke-opacity:1"
       d="m 552.38242,715.12531 c -70.44221,-5.04062 -135.16936,-44.57757 -171.95148,-105.03225 -31.16467,-51.2219 -40.04287,-111.46323 -25.049,-169.96532 7.41916,-28.94758 22.48603,-58.81094 41.70805,-82.66764 7.70432,-9.56193 23.46443,-25.32205 33.02636,-33.02636 61.58819,-49.62335 145.166,-62.50148 218.32115,-33.64012 72.78287,28.71449 124.72941,93.08172 137.07546,169.85095 9.51895,59.18992 -5.40901,119.3517 -41.46005,167.08981 -39.06214,51.72535 -96.71069,82.94097 -161.49787,87.44808 -13.26233,0.92264 -16.56774,0.91638 -30.17262,-0.0571 z m 39.41925,-33.06771 c 49.1277,-5.76563 90.15005,-28.39485 121.89041,-67.23857 4.77781,-5.84706 17.96574,-24.99022 17.9321,-26.02964 -0.009,-0.27947 -3.40409,-2.44173 -7.54455,-4.80501 -4.14045,-2.36328 -9.53694,-5.44605 -11.99218,-6.8506 l -4.46407,-2.55372 -5.36519,7.24122 c -31.15494,42.04883 -67.07889,64.02934 -112.18075,68.63916 -10.93684,1.11784 -30.2052,0.41422 -43.59306,-1.59189 -5.3711,-0.80484 -9.88794,-1.34313 -10.03743,-1.19622 -0.34424,0.3383 -7.88471,30.16116 -7.91147,31.29017 -0.0197,0.83131 8.88911,2.30381 20.80104,3.43813 10.74177,1.0229 32.31098,0.84866 42.46515,-0.34303 z m -79.09096,-23.68115 c 2.67708,-8.06872 4.86742,-15.08307 4.86742,-15.58742 0,-0.50434 -2.90039,-2.27871 -6.44532,-3.94304 -15.54031,-7.29609 -34.05698,-18.87139 -45.67478,-28.55262 -28.43525,-23.69538 -43.32044,-51.99881 -49.58203,-94.27774 -1.11021,-7.49623 -1.37939,-42.02501 -0.42337,-54.30599 l 0.60889,-7.82161 -13.73218,-4.55233 c -7.55269,-2.50378 -14.19031,-4.37652 -14.75026,-4.16164 -1.09793,0.42131 -3.87717,12.52425 -5.67632,24.71901 -0.60457,4.09788 -1.30495,13.77881 -1.55639,21.51318 -1.47879,45.48788 13.53486,88.60599 43.36981,124.5549 15.81157,19.05179 37.91101,36.55417 60.2682,47.73141 7.77322,3.88614 20.96447,9.32086 22.67165,9.34059 0.85053,0.01 2.56776,-4.1471 6.05468,-14.6567 z m 27.03701,-46.44764 c 4.32817,-1.29675 10.23523,-7.10265 11.34179,-11.14756 2.04085,-7.46008 0.562,-13.46898 -4.53103,-18.41056 -8.2099,-7.96579 -20.87084,-6.78888 -27.10982,2.52001 -9.52937,14.21833 3.80519,31.97979 20.29906,27.03811 z m 79.78353,-4.901 c 9.0516,-1.9004 16.27485,-5.96364 23.47413,-13.2047 7.23479,-7.27678 11.2636,-14.23756 13.65712,-23.59614 1.46937,-5.74518 1.54063,-8.87258 1.54063,-67.61756 v -61.59378 h -13.28125 -13.28125 l -0.0103,53.32031 c -0.009,49.03211 -0.12785,53.89008 -1.47243,60.40487 -2.61992,12.69413 -7.27137,19.72657 -15.60449,23.59214 -4.63383,2.14954 -13.98336,3.19582 -29.20187,3.2679 l -8.39844,0.0398 v 12.85903 12.85903 l 6.44531,0.26319 c 17.69093,0.72243 30.89649,0.50532 36.13281,-0.59407 z M 495.70313,552.73438 v -25 h 23.27236 23.27236 l 12.43099,17.57812 12.431,17.57813 h 15.94273 c 12.8636,0 15.8665,-0.19867 15.548,-1.02864 -0.21709,-0.56574 -6.27579,-9.97004 -13.46379,-20.89843 -7.18798,-10.92839 -13.20606,-20.22622 -13.3735,-20.66183 -0.16745,-0.43562 0.95136,-1.46833 2.48625,-2.29492 3.75739,-2.02348 12.04725,-10.92759 15.0341,-16.14806 1.3327,-2.32931 3.55123,-7.56762 4.93008,-11.64068 2.17611,-6.42816 2.5534,-8.74601 2.8587,-17.56182 0.41968,-12.11884 -0.70345,-17.97869 -5.24086,-27.34375 -7.08442,-14.62204 -20.78669,-24.30327 -39.87842,-28.1758 -7.28927,-1.47854 -14.62119,-1.64163 -59.17969,-1.31639 l -26.75781,0.19532 0.009,10.35156 c 0.005,5.69336 0.22651,11.66992 0.49284,13.28125 l 0.48424,2.92969 36.81185,0.0136 c 39.22362,0.0145 43.53551,0.34797 50.51186,3.90704 4.9844,2.54286 10.62576,8.23666 13.04829,13.1696 1.89774,3.86432 2.15754,5.28911 2.15467,11.81605 -0.003,6.501 -0.26845,7.96226 -2.14045,11.77723 -4.22832,8.61695 -13.04042,15.2022 -22.88746,17.10372 -3.22121,0.62203 -15.91322,0.82469 -41.18009,0.65754 l -36.52377,-0.24162 3.3e-4,38.47656 3.4e-4,38.47657 H 481.25 495.70313 Z m 246.12471,16.34491 c 5.43851,-10.77363 10.17881,-29.07836 12.82286,-49.51559 0.66477,-5.1384 1.20868,-9.83941 1.20868,-10.44668 0,-0.93231 -2.27949,-1.01557 -14.64844,-0.53508 -8.05664,0.31297 -14.75337,0.66578 -14.88162,0.78403 -0.12826,0.11824 -0.56626,3.50849 -0.97335,7.53388 -1.13437,11.21693 -3.58658,23.03806 -6.97204,33.60932 -1.68986,5.27667 -3.00193,9.63406 -2.9157,9.68307 0.0862,0.049 5.42474,3.13715 11.86337,6.8625 6.43863,3.72536 11.7949,6.77339 11.90282,6.77339 0.10792,0 1.27496,-2.13698 2.59342,-4.74884 z m 14.80638,-84.50898 c -0.0566,-56.96754 -37.79933,-117.81993 -93.74359,-151.14249 -23.05116,-13.73017 -48.29953,-22.24761 -74.92067,-25.27422 -10.51883,-1.1959 -37.01163,-0.53496 -46.95433,1.17142 -22.64773,3.88683 -45.22222,11.9382 -65.16303,23.2409 -7.39235,4.19008 -27.54406,17.55053 -28.28854,18.75512 -0.48321,0.78186 2.47303,4.25298 11.96252,14.04602 l 6.56336,6.77331 6.40816,-4.59717 c 18.8543,-13.52597 40.23479,-22.47879 64.36715,-26.95295 10.49979,-1.94668 33.63856,-2.36521 45.35744,-0.82043 62.35006,8.21897 112.21105,50.17778 133.77518,112.57393 3.45893,10.00848 7.03539,23.75945 8.58493,33.00781 l 0.949,5.66407 h 15.55441 15.55442 z M 503.51563,471.875 v -10.54687 h -18.35938 -18.35937 v 10.54687 10.54688 h 18.35937 18.35938 z m -77.97878,-45.51605 c 5.74808,-11.81 13.16703,-23.58229 21.28882,-33.78082 2.90861,-3.65235 5.46625,-7.08184 5.68364,-7.62111 0.21738,-0.53926 -3.91959,-5.568 -9.19328,-11.17498 l -9.58851,-10.1945 -4.75439,5.24841 c -15.24919,16.83372 -28.47969,37.84139 -34.73803,55.15774 l -1.61278,4.46243 13.06384,4.24847 c 7.18511,2.33666 13.4154,4.27994 13.84509,4.3184 0.42969,0.0385 3.13221,-4.76036 6.0056,-10.66404 z m 227.61792,-2.81644 c 5.28387,-2.46049 10.19883,-8.14472 11.79751,-13.64395 2.91125,-10.01436 -1.907,-21.07723 -11.1215,-25.53531 -3.68871,-1.78465 -12.05911,-2.41555 -16.43059,-1.23843 -4.62484,1.24534 -9.74416,5.50402 -12.41625,10.32888 -2.00882,3.62722 -2.32525,5.0047 -2.31141,10.06193 0.0186,6.79228 1.75115,11.32722 5.9401,15.54811 6.26242,6.31019 16.56975,8.19121 24.54214,4.47877 z"
       id="path2697"
       sodipodi:nodetypes="sssssssssssssssscssssssssssssscsssssscssssssssssccccssscccsssccccccssssssssssscsscsssssssccccccssccsssssssssssssscssssscccscccccccccsssscsscsssssssssss" />
    <path
       style="fill:#0482d7;fill-opacity:1;stroke:none;stroke-width:0.542064;stroke-dasharray:none;stroke-opacity:1"
       d="m 529.1023,612.34759 c -2.7327,-0.83125 -5.16202,-2.32277 -7.52134,-4.6178 -3.40007,-3.30746 -4.89978,-6.67699 -5.23141,-11.75378 -0.24839,-3.80243 -0.0677,-4.84425 1.4119,-8.14127 3.10467,-6.9181 9.03036,-10.76281 16.56287,-10.74635 13.17256,0.0288 21.84276,13.79332 16.08013,25.5283 -2.0609,4.19684 -6.17372,8.00496 -10.08464,9.33755 -2.95166,1.00572 -8.55808,1.20232 -11.21751,0.39335 z"
       id="path2698" />
    <circle
       style="fill:#ffffff;fill-opacity:0.0916667;stroke:none;stroke-width:0.911397;stroke-dasharray:none;stroke-opacity:1"
       id="circle2698"
       cx="534.13617"
       cy="594.9187"
       r="17.057665" />
    <circle
       style="fill:#ffffff;fill-opacity:0.0916667;stroke:none;stroke-width:0.936075;stroke-dasharray:none;stroke-opacity:1"
       id="circle2699"
       cx="644.10229"
       cy="403.83359"
       r="20.919672" />
    <g
       id="g2700"
       style="stroke:none"
       transform="translate(-137.5,221.875)">
      <path
         style="fill:#ffffff;fill-opacity:0.0916667;stroke:none;stroke-width:0.883;stroke-dasharray:none;stroke-opacity:1"
         d="m 604.35323,195.13047 0.44097,24.69447 h 69.89419 c 47.07353,1.48136 42.72606,59.2405 0.85851,60.34071 -23.30447,0.61244 -70.47016,-0.46772 -70.47016,-0.46772 v 74.99147 l 27.2838,0.31182 0.31181,-49.89038 47.55177,-0.15591 24.94519,35.23508 30.09013,-0.31181 -27.90743,-42.25092 c 36.91628,-17.20333 45.40165,-103.86766 -37.26187,-103.21071 z"
         id="path2699"
         sodipodi:nodetypes="cccscccccccccc" />
      <path
         style="fill:#ffffff;fill-opacity:0.0916667;stroke:none;stroke-width:0.883;stroke-dasharray:none;stroke-opacity:1"
         d="m 604.92083,240.25335 v 19.48843 H 640 l -0.15591,-19.64434 z"
         id="path2700" />
    </g>
    <path
       style="fill:#ffffff;fill-opacity:0.0916667;stroke:none;stroke-width:0.883;stroke-dasharray:none;stroke-opacity:0.9125"
       d="m 577.49147,582.17707 v 24.63338 l 30.09014,0.46772 c 27.40775,1.11949 47.68717,-20.86829 49.89038,-45.52497 l 0.1559,-119.89282 -25.41291,0.15591 0.31182,104.76979 c -2.64338,14.18686 -4.13981,33.84516 -29.93423,35.23508 z"
       id="path2701"
       sodipodi:nodetypes="ccccccccc" />
    <path
       style="fill:#ffffff;fill-opacity:0.0916667;stroke:none;stroke-width:0.883;stroke-dasharray:none;stroke-opacity:1"
       d="m 529.29688,678.90625 7.7888,-30.69757 c 63.03613,11.818 122.17103,-1.94258 170.78403,-72.54387 l 22.59904,13.20238 c -30.25346,52.21989 -95.20787,108.6718 -201.17187,90.03906 z"
       id="path2702"
       sodipodi:nodetypes="ccccc" />
    <path
       style="fill:#ffffff;fill-opacity:0.0916667;stroke:none;stroke-width:0.883;stroke-dasharray:none;stroke-opacity:1"
       d="M 739.06382,572.80436 716.2762,559.54611 c 6.31797,-16.24295 9.70194,-32.8771 10.49612,-49.85655 l 28.31189,-0.55243 c -2.53182,21.39525 -4.87592,42.00329 -16.02039,63.66723 z"
       id="path2703"
       sodipodi:nodetypes="ccccc" />
    <path
       style="fill:#ffffff;fill-opacity:0.0916667;stroke:none;stroke-width:0.883;stroke-dasharray:none;stroke-opacity:1"
       d="m 726.21989,490.07839 h 29.55485 C 759.50514,367.47074 597.27082,237.97694 448.07281,351.9716 l 18.09199,19.12779 c 88.5551,-70.51036 237.47997,-28.99776 260.05509,118.979 z"
       id="path2704"
       sodipodi:nodetypes="ccccc" />
    <path
       style="fill:#ffffff;fill-opacity:0.0916667;stroke:none;stroke-width:0.883;stroke-dasharray:none;stroke-opacity:1"
       d="m 393.79684,427.93034 26.10218,8.2864 c 9.41061,-22.48005 20.57772,-37.93409 32.17888,-51.65194 l -18.23009,-19.61116 c -17.707,18.20396 -31.54571,38.88363 -40.05097,62.9767 z"
       id="path2705"
       sodipodi:nodetypes="ccccc" />
    <path
       style="fill:#ffffff;fill-opacity:0.0916667;stroke:none;stroke-width:0.883;stroke-dasharray:none;stroke-opacity:1"
       d="M 507.04441,672.51747 516.9881,642.6864 C 454.95746,613.43948 403.11744,573.20776 415.20339,454.58495 l -27.48325,-9.11505 c -28.40495,106.71208 35.44978,198.1708 119.32427,227.04757 z"
       id="path2706"
       sodipodi:nodetypes="ccccc" />
    <path
       style="fill:#08202c;fill-opacity:1;stroke:none;stroke-width:0.689844;stroke-dasharray:none;stroke-opacity:1"
       d="m 552.38242,715.12531 c -70.44221,-5.04062 -135.16936,-44.57757 -171.95148,-105.03225 -31.16467,-51.2219 -40.04287,-111.46323 -25.049,-169.96532 7.41916,-28.94758 22.48603,-58.81094 41.70805,-82.66764 7.70432,-9.56193 23.46443,-25.32205 33.02636,-33.02636 61.58819,-49.62335 145.166,-62.50148 218.32115,-33.64012 72.78287,28.71449 124.72941,93.08172 137.07546,169.85095 9.51895,59.18992 -5.40901,119.3517 -41.46005,167.08981 -39.06214,51.72535 -96.71069,82.94097 -161.49787,87.44808 -13.26233,0.92264 -16.56774,0.91638 -30.17262,-0.0571 z m 39.41925,-33.06771 c 49.1277,-5.76563 90.15005,-28.39485 121.89041,-67.23857 4.77781,-5.84706 17.96574,-24.99022 17.9321,-26.02964 -0.009,-0.27947 -3.40409,-2.44173 -7.54455,-4.80501 -4.14045,-2.36328 -9.53694,-5.44605 -11.99218,-6.8506 l -4.46407,-2.55372 -5.36519,7.24122 c -31.15494,42.04883 -67.07889,64.02934 -112.18075,68.63916 -10.93684,1.11784 -30.2052,0.41422 -43.59306,-1.59189 -5.3711,-0.80484 -9.88794,-1.34313 -10.03743,-1.19622 -0.34424,0.3383 -7.88471,30.16116 -7.91147,31.29017 -0.0197,0.83131 8.88911,2.30381 20.80104,3.43813 10.74177,1.0229 32.31098,0.84866 42.46515,-0.34303 z m -79.09096,-23.68115 c 2.67708,-8.06872 4.86742,-15.08307 4.86742,-15.58742 0,-0.50434 -2.90039,-2.27871 -6.44532,-3.94304 -15.54031,-7.29609 -34.05698,-18.87139 -45.67478,-28.55262 -28.43525,-23.69538 -43.32044,-51.99881 -49.58203,-94.27774 -1.11021,-7.49623 -1.37939,-42.02501 -0.42337,-54.30599 l 0.60889,-7.82161 -13.73218,-4.55233 c -7.55269,-2.50378 -14.19031,-4.37652 -14.75026,-4.16164 -1.09793,0.42131 -3.87717,12.52425 -5.67632,24.71901 -0.60457,4.09788 -1.30495,13.77881 -1.55639,21.51318 -1.47879,45.48788 13.53486,88.60599 43.36981,124.5549 15.81157,19.05179 37.91101,36.55417 60.2682,47.73141 7.77322,3.88614 20.96447,9.32086 22.67165,9.34059 0.85053,0.01 2.56776,-4.1471 6.05468,-14.6567 z m 27.03701,-46.44764 c 4.32817,-1.29675 10.23523,-7.10265 11.34179,-11.14756 2.04085,-7.46008 0.562,-13.46898 -4.53103,-18.41056 -8.2099,-7.96579 -20.87084,-6.78888 -27.10982,2.52001 -9.52937,14.21833 3.80519,31.97979 20.29906,27.03811 z m 79.78353,-4.901 c 9.0516,-1.9004 16.27485,-5.96364 23.47413,-13.2047 7.23479,-7.27678 11.2636,-14.23756 13.65712,-23.59614 1.46937,-5.74518 1.54063,-8.87258 1.54063,-67.61756 v -61.59378 h -13.28125 -13.28125 l -0.0103,53.32031 c -0.009,49.03211 -0.12785,53.89008 -1.47243,60.40487 -2.61992,12.69413 -7.27137,19.72657 -15.60449,23.59214 -4.63383,2.14954 -13.98336,3.19582 -29.20187,3.2679 l -8.39844,0.0398 v 12.85903 12.85903 l 6.44531,0.26319 c 17.69093,0.72243 30.89649,0.50532 36.13281,-0.59407 z M 495.70313,552.73438 v -25 h 23.27236 23.27236 l 12.43099,17.57812 12.431,17.57813 h 15.94273 c 12.8636,0 15.8665,-0.19867 15.548,-1.02864 -0.21709,-0.56574 -6.27579,-9.97004 -13.46379,-20.89843 -7.18798,-10.92839 -13.20606,-20.22622 -13.3735,-20.66183 -0.16745,-0.43562 0.95136,-1.46833 2.48625,-2.29492 3.75739,-2.02348 12.04725,-10.92759 15.0341,-16.14806 1.3327,-2.32931 3.55123,-7.56762 4.93008,-11.64068 2.17611,-6.42816 2.5534,-8.74601 2.8587,-17.56182 0.41968,-12.11884 -0.70345,-17.97869 -5.24086,-27.34375 -7.08442,-14.62204 -20.78669,-24.30327 -39.87842,-28.1758 -7.28927,-1.47854 -14.62119,-1.64163 -59.17969,-1.31639 l -26.75781,0.19532 0.009,10.35156 c 0.005,5.69336 0.22651,11.66992 0.49284,13.28125 l 0.48424,2.92969 36.81185,0.0136 c 39.22362,0.0145 43.53551,0.34797 50.51186,3.90704 4.9844,2.54286 10.62576,8.23666 13.04829,13.1696 1.89774,3.86432 2.15754,5.28911 2.15467,11.81605 -0.003,6.501 -0.26845,7.96226 -2.14045,11.77723 -4.22832,8.61695 -13.04042,15.2022 -22.88746,17.10372 -3.22121,0.62203 -15.91322,0.82469 -41.18009,0.65754 l -36.52377,-0.24162 3.3e-4,38.47656 3.4e-4,38.47657 H 481.25 495.70313 Z m 246.12471,16.34491 c 5.43851,-10.77363 10.17881,-29.07836 12.82286,-49.51559 0.66477,-5.1384 1.20868,-9.83941 1.20868,-10.44668 0,-0.93231 -2.27949,-1.01557 -14.64844,-0.53508 -8.05664,0.31297 -14.75337,0.66578 -14.88162,0.78403 -0.12826,0.11824 -0.56626,3.50849 -0.97335,7.53388 -1.13437,11.21693 -3.58658,23.03806 -6.97204,33.60932 -1.68986,5.27667 -3.00193,9.63406 -2.9157,9.68307 0.0862,0.049 5.42474,3.13715 11.86337,6.8625 6.43863,3.72536 11.7949,6.77339 11.90282,6.77339 0.10792,0 1.27496,-2.13698 2.59342,-4.74884 z m 14.80638,-84.50898 c -0.0566,-56.96754 -37.79933,-117.81993 -93.74359,-151.14249 -23.05116,-13.73017 -48.29953,-22.24761 -74.92067,-25.27422 -10.51883,-1.1959 -37.01163,-0.53496 -46.95433,1.17142 -22.64773,3.88683 -45.22222,11.9382 -65.16303,23.2409 -7.39235,4.19008 -27.54406,17.55053 -28.28854,18.75512 -0.48321,0.78186 2.47303,4.25298 11.96252,14.04602 l 6.56336,6.77331 6.40816,-4.59717 c 18.8543,-13.52597 40.23479,-22.47879 64.36715,-26.95295 10.49979,-1.94668 33.63856,-2.36521 45.35744,-0.82043 62.35006,8.21897 112.21105,50.17778 133.77518,112.57393 3.45893,10.00848 7.03539,23.75945 8.58493,33.00781 l 0.949,5.66407 h 15.55441 15.55442 z M 503.51563,471.875 v -10.54687 h -18.35938 -18.35937 v 10.54687 10.54688 h 18.35937 18.35938 z m -77.97878,-45.51605 c 5.74808,-11.81 13.16703,-23.58229 21.28882,-33.78082 2.90861,-3.65235 5.46625,-7.08184 5.68364,-7.62111 0.21738,-0.53926 -3.91959,-5.568 -9.19328,-11.17498 l -9.58851,-10.1945 -4.75439,5.24841 c -15.24919,16.83372 -28.47969,37.84139 -34.73803,55.15774 l -1.61278,4.46243 13.06384,4.24847 c 7.18511,2.33666 13.4154,4.27994 13.84509,4.3184 0.42969,0.0385 3.13221,-4.76036 6.0056,-10.66404 z m 227.61792,-2.81644 c 5.28387,-2.46049 10.19883,-8.14472 11.79751,-13.64395 2.91125,-10.01436 -1.907,-21.07723 -11.1215,-25.53531 -3.68871,-1.78465 -12.05911,-2.41555 -16.43059,-1.23843 -4.62484,1.24534 -9.74416,5.50402 -12.41625,10.32888 -2.00882,3.62722 -2.32525,5.0047 -2.31141,10.06193 0.0186,6.79228 1.75115,11.32722 5.9401,15.54811 6.26242,6.31019 16.56975,8.19121 24.54214,4.47877 z"
       id="path2707"
       sodipodi:nodetypes="sssssssssssssssscssssssssssssscsssssscssssssssssccccssscccsssccccccssssssssssscsscsssssssccccccssccsssssssssssssscssssscccscccccccccsssscsscsssssssssss" />
    <path
       style="fill:#0482d7;fill-opacity:1;stroke:none;stroke-width:0.542064;stroke-dasharray:none;stroke-opacity:1"
       d="m 529.1023,612.34759 c -2.7327,-0.83125 -5.16202,-2.32277 -7.52134,-4.6178 -3.40007,-3.30746 -4.89978,-6.67699 -5.23141,-11.75378 -0.24839,-3.80243 -0.0677,-4.84425 1.4119,-8.14127 3.10467,-6.9181 9.03036,-10.76281 16.56287,-10.74635 13.17256,0.0288 21.84276,13.79332 16.08013,25.5283 -2.0609,4.19684 -6.17372,8.00496 -10.08464,9.33755 -2.95166,1.00572 -8.55808,1.20232 -11.21751,0.39335 z"
       id="path2708" />
  </g>
</svg>
